<?xml version="1.0" standalone="no"?>
<!DOCTYPE svg PUBLIC "-//W3C//DTD SVG 20010904//EN"
 "http://www.w3.org/TR/2001/REC-SVG-20010904/DTD/svg10.dtd">
<svg version="1.0" xmlns="http://www.w3.org/2000/svg"
 width="500.000000pt" height="500.000000pt" viewBox="0 0 500.000000 500.000000"
 preserveAspectRatio="xMidYMid meet">
<metadata>
Created by potrace 1.10, written by Peter Selinger 2001-2011
</metadata>
<g transform="translate(0.000000,500.000000) scale(0.050000,-0.050000)"
fill="#000000" stroke="none">
<path d="M7183 6990 c-173 -146 -464 -697 -640 -1214 l-121 -353 -176 -223
c-97 -122 -194 -247 -216 -278 -101 -143 -329 -265 -358 -190 -71 185 172
1049 298 1057 31 2 36 -127 9 -224 -33 -116 -4 -151 76 -92 83 61 103 191 49
313 -108 244 -327 139 -526 -253 -56 -111 -119 -227 -140 -256 -21 -29 -38
-62 -38 -73 0 -49 -250 -226 -295 -210 -54 20 13 278 107 417 76 112 55 161
-75 182 -89 14 -142 -44 -188 -203 -45 -157 -631 -910 -708 -910 -85 0 83 628
324 1210 49 121 101 248 114 282 23 62 24 62 215 76 318 22 376 92 76 92 -118
0 -190 8 -190 21 0 32 158 321 218 399 173 225 172 267 -5 267 -117 0 -171
-38 -242 -169 -32 -60 -77 -132 -101 -160 -24 -29 -73 -121 -110 -205 -77
-175 -39 -159 -447 -189 -141 -11 -266 -29 -277 -40 -36 -36 113 -51 367 -36
130 7 237 10 237 6 0 -30 -222 -604 -248 -639 -18 -25 -91 -117 -163 -205 -71
-88 -161 -202 -200 -253 -130 -173 -325 -278 -368 -198 -81 151 176 1061 300
1061 38 0 43 -106 9 -213 -41 -130 -23 -169 60 -131 137 63 106 419 -40 456
-143 36 -271 -79 -419 -375 -60 -120 -127 -242 -150 -270 -23 -29 -41 -63 -41
-75 0 -24 -189 -177 -244 -197 -106 -40 -80 150 56 401 82 151 81 136 9 173
-135 70 -217 15 -262 -174 -59 -254 -599 -909 -599 -728 0 15 50 148 112 295
61 148 121 293 134 323 31 76 -13 117 -139 128 -211 20 -226 39 -133 173 53
76 53 79 16 106 -123 91 -309 -87 -250 -241 17 -45 14 -60 -19 -88 -21 -18
-125 -145 -231 -283 -242 -313 -492 -600 -525 -600 -76 0 68 568 266 1053 62
153 128 318 146 367 51 135 47 133 256 148 307 21 351 92 57 92 -104 0 -190 7
-190 17 0 27 178 348 218 392 166 183 163 278 -7 278 -102 0 -162 -43 -235
-167 -23 -38 -71 -115 -107 -170 -35 -55 -85 -149 -110 -210 -62 -151 -65
-152 -359 -168 -144 -7 -286 -23 -316 -35 l-54 -21 50 -20 c30 -12 153 -16
305 -9 140 7 255 5 255 -3 0 -8 -33 -99 -72 -204 -39 -104 -78 -220 -87 -256
-10 -36 -26 -76 -37 -90 -91 -110 -260 -898 -223 -1038 33 -123 174 -192 279
-136 64 34 486 586 736 964 43 64 55 71 98 55 27 -11 75 -19 107 -19 74 0 87
43 -116 -400 -115 -250 24 -510 212 -397 144 86 245 182 376 359 l134 179 82
-89 c138 -150 227 -147 352 11 l79 101 0 -157 c2 -518 338 -504 763 31 153
192 151 193 99 -52 -94 -443 -54 -606 150 -606 92 0 325 263 626 706 l65 96
56 -76 c147 -202 235 -214 376 -55 l103 114 -4 -158 c-13 -544 367 -490 830
118 65 85 121 155 125 155 4 0 -11 -79 -33 -175 -153 -677 129 -983 516 -558
107 118 380 504 452 639 41 78 45 37 11 -109 l-25 -107 -12 70 c-11 60 -13 54
-15 -40 -6 -254 245 -410 430 -269 125 96 620 732 598 768 -29 46 -68 12 -221
-194 -434 -582 -643 -654 -562 -195 l24 140 109 52 c378 182 519 542 242 617
-184 50 -339 -75 -523 -420 -260 -489 -625 -979 -729 -979 -207 0 -71 752 206
1138 87 120 193 276 235 346 42 69 104 162 137 207 91 120 248 463 272 594 46
252 -133 423 -298 285z m177 -161 c0 -78 -73 -282 -173 -479 -105 -208 -371
-653 -383 -641 -26 26 297 878 388 1025 90 144 168 188 168 95z m530 -1128
c26 -82 -27 -194 -142 -299 -160 -147 -173 -142 -100 37 94 230 211 358 242
262z m-3510 -392 c-55 -153 -100 -281 -100 -287 0 -5 -4 -4 -10 1 -5 6 16 86
48 179 87 254 145 402 154 392 5 -4 -37 -133 -92 -285z m-3170 -40 c-120 -331
-148 -369 -42 -58 79 235 134 373 144 364 4 -4 -42 -142 -102 -306z"/>
<path d="M3006 6183 c-14 -24 -16 -45 -4 -57 24 -24 -35 -202 -87 -260 -46
-50 -35 -146 16 -146 35 0 169 101 169 127 0 10 -15 6 -33 -10 -44 -35 69 137
128 196 55 56 56 68 4 134 -51 65 -157 73 -193 16z"/>
<path d="M5234 6192 c-6 -16 -6 -46 -1 -69 13 -49 -25 -174 -76 -246 -40 -58
-49 -128 -17 -147 33 -21 97 9 110 51 7 22 20 35 29 30 20 -13 65 38 49 54
-16 16 40 118 90 163 50 45 53 87 11 148 -37 52 -177 64 -195 16z"/>
</g>
</svg>
